<svg width="162" height="186" viewBox="0 0 162 186" fill="none" xmlns="http://www.w3.org/2000/svg">
<path fill-rule="evenodd" clip-rule="evenodd" d="M27.1135 27.1135C44.4739 9.75301 68.0198 1.07318e-06 92.5712 0V15.4289H86.8872H84.8571C80.5966 15.4289 77.1428 18.8827 77.1428 23.1432C77.1428 27.4037 80.5966 30.8575 84.8571 30.8575H92.5712V46.2853H61.7146C57.4542 46.2853 54.0004 49.7391 54.0004 53.9995C54.0004 58.26 57.4542 61.7138 61.7146 61.7138H92.5712V92.5712V104.143H84.8571C80.5966 104.143 77.1428 107.597 77.1428 111.858C77.1428 116.118 80.5966 119.572 84.8571 119.572H92.5712L92.5712 185.142C68.0198 185.142 44.4739 175.389 27.1135 158.029C9.753 140.668 -7.80403e-07 117.123 0 92.5712C7.80404e-07 68.0198 9.75301 44.4739 27.1135 27.1135Z" fill="#692D8E"/>
<path fill-rule="evenodd" clip-rule="evenodd" d="M104.143 0.000392682C79.5914 0.000393755 56.0456 9.7534 38.6851 27.1139C21.3246 44.4743 11.5716 68.0202 11.5716 92.5716C11.5716 117.123 21.3246 140.669 38.6851 158.029C56.0456 175.39 79.5914 185.143 104.143 185.143L104.143 145.538C101.837 144.204 100.286 141.711 100.286 138.856C100.286 136.001 101.837 133.508 104.143 132.174V119.572H84.8571C80.5966 119.572 77.1428 116.118 77.1428 111.858C77.1428 107.597 80.5966 104.143 84.8571 104.143H104.143V92.5716V87.6817C101.837 86.3478 100.286 83.8549 100.286 80.9997C100.286 78.1446 101.837 75.6517 104.143 74.3178V61.7138H61.7146C57.4542 61.7138 54.0004 58.26 54.0004 53.9995C54.0004 49.7391 57.4542 46.2853 61.7146 46.2853H104.143V30.8575H84.8571C80.5966 30.8575 77.1428 27.4037 77.1428 23.1432C77.1428 18.8827 80.5966 15.4289 84.8571 15.4289H86.8872H104.143V0.000392682ZM104.143 30.8575H108H131.143C135.403 30.8575 138.857 27.4037 138.857 23.1432C138.857 18.8827 135.403 15.4289 131.143 15.4289H104.143V0.000766724H145C154.389 0.000766724 162 7.61192 162 17.0008V73.2855H108C106.595 73.2855 105.278 73.6612 104.143 74.3176V61.7138H146.572C150.832 61.7138 154.286 58.26 154.286 53.9995C154.286 49.7391 150.832 46.2853 146.572 46.2853H104.143V30.8575ZM104.143 87.6818V104.143H142.714C146.975 104.143 150.428 107.597 150.428 111.858C150.428 116.118 146.975 119.572 142.714 119.572H104.143V132.174C105.278 131.518 106.595 131.142 108 131.142H146.572C150.832 131.142 154.286 134.596 154.286 138.856C154.286 143.117 150.832 146.57 146.572 146.57H108C106.595 146.57 105.278 146.195 104.143 145.538V185.143H145C152.491 185.143 158.85 180.298 161.115 173.571H131.143C126.882 173.571 123.429 170.117 123.429 165.856C123.429 161.596 126.882 158.142 131.143 158.142H162V88.714H108C106.595 88.714 105.278 88.3383 104.143 87.6818Z" fill="#8D40BC"/>
</svg>
